<svg xmlns="http://www.w3.org/2000/svg" xmlns:xlink="http://www.w3.org/1999/xlink" xmlns:sketch="http://www.bohemiancoding.com/sketch/ns" viewBox="0 0 30 37.5" version="1.1" x="0px" y="0px"><title>action_030-account-user-profile-avatar</title><desc>Created with Sketch.</desc><g stroke="none" stroke-width="1" fill="none" fill-rule="evenodd" sketch:type="MSPage"><g sketch:type="MSArtboardGroup" transform="translate(-450.000000, -135.000000)" fill="#000000"><path d="M465,163 C472.179702,163 478,157.179702 478,150 C478,142.820298 472.179702,137 465,137 C457.820298,137 452,142.820298 452,150 C452,157.179702 457.820298,163 465,163 Z M465,151 C467.761424,151 470,148.761424 470,146 C470,143.238576 467.761424,141 465,141 C462.238576,141 460,143.238576 460,146 C460,148.761424 462.238576,151 465,151 Z M455.591949,155.702981 C457.521093,158.878627 461.01281,161 465,161 C468.98719,161 472.478907,158.878627 474.408051,155.702981 C474.396596,155.615515 474.361844,155.529969 474.302717,155.456056 C473.070016,153.915092 471.11841,153 468.5,153 L461.5,153 C458.88159,153 456.929984,153.915092 455.697283,155.456056 C455.638156,155.529969 455.603404,155.615515 455.591949,155.702981 L455.591949,155.702981 Z" sketch:type="MSShapeGroup"/></g></g><text x="0" y="45" fill="#000000" font-size="5px" font-weight="bold" font-family="'Helvetica Neue', Helvetica, Arial-Unicode, Arial, Sans-serif">Created by Pham Thi Dieu Linh</text><text x="0" y="50" fill="#000000" font-size="5px" font-weight="bold" font-family="'Helvetica Neue', Helvetica, Arial-Unicode, Arial, Sans-serif">from the Noun Project</text></svg>